<svg width="11" height="11" viewBox="0 0 11 11" fill="none" xmlns="http://www.w3.org/2000/svg">
<path d="M5.43251 1.66837C3.24499 1.66837 1.4696 3.44375 1.4696 5.63127C1.4696 7.8188 3.24499 9.59418 5.43251 9.59418C7.62004 9.59418 9.39542 7.8188 9.39542 5.63127C9.39542 3.44375 7.624 1.66837 5.43251 1.66837Z" fill="#90A3BF"/>
<rect x="2.26221" y="2.461" width="6.34065" height="6.34065" rx="3.17033" fill="white"/>
<path d="M5.43255 3.25363C4.12004 3.25363 3.05481 4.31886 3.05481 5.63138C3.05481 6.94389 4.12004 8.00912 5.43255 8.00912C6.74507 8.00912 7.8103 6.94389 7.8103 5.63138C7.8103 4.31886 6.74745 3.25363 5.43255 3.25363Z" fill="#90A3BF"/>
<rect x="3.84735" y="4.04611" width="3.17033" height="3.17033" rx="1.58516" fill="white"/>
<rect x="5.03619" y="7.61279" width="0.792582" height="1.58516" fill="#90A3BF"/>
<rect x="7.41394" y="5.23492" width="1.58516" height="0.792582" fill="#90A3BF"/>
<rect x="1.86584" y="5.23495" width="1.58516" height="0.792582" fill="#90A3BF"/>
</svg>
