<svg width="10" height="11" viewBox="0 0 10 11" fill="none" xmlns="http://www.w3.org/2000/svg">
<rect width="10" height="11" fill="#1E1E1E"/>
<g id="HF - Category Car Rent">
<g id="Content" clip-path="url(#clip0_0_1)">
<rect width="570.659" height="634.065" transform="translate(-303 -347.86)" fill="#F6F7F9"/>
<g id="Catalogue Car">
<g id="Catalogue 2">
<g id="Catalog 2">
<rect x="-9.34845" y="-102.16" width="125.624" height="153.761" rx="3.96291" fill="white"/>
<g id="Spesification">
<g id="Gasoline">
<g id="vuesax/bold/gas-station">
<g id="vuesax/bold/gas-station_2">
<g id="gas-station">
<path id="Vector" d="M9.01561 4.57324L8.22303 4.17695C8.0764 4.10562 7.89411 4.1611 7.82278 4.30772C7.74748 4.45831 7.80692 4.63664 7.95355 4.70798L8.58365 5.02105L8.58365 6.91928L7.09756 6.92324L7.09756 2.8573C7.09756 2.06472 6.56653 1.66843 5.90869 1.66843L2.73836 1.66843C2.08052 1.66843 1.54949 2.06472 1.54949 2.8573L1.54949 9.29703H0.955055C0.792576 9.29703 0.657837 9.43176 0.657837 9.59424C0.657837 9.75672 0.792576 9.89146 0.955055 9.89146H7.692C7.85448 9.89146 7.98922 9.75672 7.98922 9.59424C7.98922 9.43176 7.85448 9.29703 7.692 9.29703H7.09756L7.09756 7.51768L8.88087 7.51372C9.04731 7.51372 9.17809 7.37898 9.17809 7.2165L9.17809 4.83875C9.17809 4.72779 9.11468 4.62476 9.01561 4.57324ZM2.54022 3.60629C2.54022 3.05544 2.87707 2.8573 3.28921 2.8573H5.36181C5.76999 2.8573 6.10684 3.05544 6.10684 3.60629V4.09373C6.10684 4.64061 5.76999 4.83875 5.35785 4.83875H3.28921C2.87707 4.83875 2.54022 4.64061 2.54022 4.08976L2.54022 3.60629ZM2.73836 5.73041H3.92724C4.08972 5.73041 4.22445 5.86515 4.22445 6.02763C4.22445 6.1901 4.08972 6.32484 3.92724 6.32484H2.73836C2.57588 6.32484 2.44115 6.1901 2.44115 6.02763C2.44115 5.86515 2.57588 5.73041 2.73836 5.73041Z" fill="#90A3BF"/>
</g>
</g>
</g>
</g>
</g>
</g>
</g>
</g>
</g>
</g>
<defs>
<clipPath id="clip0_0_1">
<rect width="570.659" height="634.065" fill="white" transform="translate(-303 -347.86)"/>
</clipPath>
</defs>
</svg>
