<svg width="11" height="11" viewBox="0 0 11 11" fill="none" xmlns="http://www.w3.org/2000/svg">
<path d="M4.26892 1.66843C3.23064 1.66843 2.38654 2.51253 2.38654 3.55081C2.38654 4.56928 3.18308 5.39356 4.22136 5.42923C4.25307 5.42526 4.28477 5.42526 4.30855 5.42923C4.31647 5.42923 4.32043 5.42923 4.32836 5.42923C4.33232 5.42923 4.33232 5.42923 4.33629 5.42923C5.35079 5.39356 6.14734 4.56928 6.1513 3.55081C6.1513 2.51253 5.3072 1.66843 4.26892 1.66843Z" fill="#90A3BF"/>
<path d="M6.28205 6.48337C5.1764 5.74627 3.37327 5.74627 2.2597 6.48337C1.75641 6.82021 1.479 7.27595 1.479 7.76339C1.479 8.25082 1.75641 8.7026 2.25573 9.03548C2.81054 9.40799 3.53972 9.59425 4.26889 9.59425C4.99807 9.59425 5.72724 9.40799 6.28205 9.03548C6.78138 8.69863 7.05878 8.24686 7.05878 7.75546C7.05482 7.26802 6.78138 6.81625 6.28205 6.48337Z" fill="#90A3BF"/>
<path d="M8.62414 3.78463C8.68754 4.55344 8.14066 5.22713 7.38375 5.31828C7.37978 5.31828 7.37978 5.31828 7.37582 5.31828H7.36393C7.34015 5.31828 7.31638 5.31828 7.29656 5.3262C6.91216 5.34602 6.55946 5.22317 6.29395 4.99728C6.70212 4.6327 6.93594 4.08581 6.88838 3.49138C6.86064 3.17038 6.74968 2.87713 6.58324 2.62746C6.73383 2.55217 6.9082 2.50461 7.08653 2.48876C7.86326 2.42139 8.55677 2.99998 8.62414 3.78463Z" fill="#90A3BF"/>
<path d="M9.41673 7.45033C9.38502 7.83473 9.13932 8.16762 8.72718 8.3935C8.33089 8.61146 7.83156 8.7145 7.3362 8.70261C7.62153 8.44502 7.78797 8.12403 7.81967 7.78322C7.8593 7.29182 7.62549 6.82023 7.15787 6.44375C6.89235 6.23372 6.58325 6.06728 6.2464 5.94443C7.1222 5.6908 8.22389 5.86121 8.90155 6.40809C9.26614 6.70134 9.45239 7.06989 9.41673 7.45033Z" fill="#90A3BF"/>
</svg>
